<svg width="39" height="38" viewBox="0 0 39 38" fill="none" xmlns="http://www.w3.org/2000/svg">
<rect x="0.896973" width="37.206" height="38" rx="10" fill="#F5F7FF"/>
<path fill-rule="evenodd" clip-rule="evenodd" d="M12.627 10.1138C11.4478 11.293 11.4478 13.191 11.4478 16.9868V21.0129C11.4478 24.8088 11.4478 26.7067 12.627 27.886C13.8062 29.0652 15.7041 29.0652 19.5 29.0652C23.2959 29.0652 25.1938 29.0652 26.373 27.886C27.5522 26.7067 27.5522 24.8088 27.5522 21.0129V16.9868C27.5522 13.191 27.5522 11.293 26.373 10.1138C25.1938 8.93457 23.2959 8.93457 19.5 8.93457C15.7041 8.93457 13.8062 8.93457 12.627 10.1138ZM16.4804 11.1993C16.0635 11.1993 15.7255 11.5372 15.7255 11.9542C15.7255 12.3711 16.0635 12.7091 16.4804 12.7091H22.5196C22.9365 12.7091 23.2745 12.3711 23.2745 11.9542C23.2745 11.5372 22.9365 11.1993 22.5196 11.1993H16.4804ZM19.5 26.0456C20.6118 26.0456 21.5131 25.1443 21.5131 24.0325C21.5131 22.9207 20.6118 22.0195 19.5 22.0195C18.3882 22.0195 17.4869 22.9207 17.4869 24.0325C17.4869 25.1443 18.3882 26.0456 19.5 26.0456Z" fill="#442CF5"/>
</svg>
