<svg width="38" height="38" viewBox="0 0 38 38" fill="none" xmlns="http://www.w3.org/2000/svg">
<rect x="0.264648" width="37.206" height="38" rx="10" fill="#F5F7FF"/>
<path fill-rule="evenodd" clip-rule="evenodd" d="M9.86743 18.3227C10.2136 13.6545 14.1108 9.97461 18.8674 9.97461C18.1176 9.97461 17.4499 10.3033 16.9007 10.8059C16.3542 11.306 15.8924 12.0041 15.5189 12.8294C15.1432 13.6594 14.8513 14.6303 14.6538 15.6839C14.4954 16.5285 14.3991 17.4189 14.3669 18.3227H9.86743ZM9.86743 19.6765H14.3669C14.3991 20.5803 14.4954 21.4707 14.6538 22.3153C14.8513 23.3689 15.1432 24.3398 15.5189 25.1699C15.8924 25.9951 16.3542 26.6932 16.9007 27.1933C17.4499 27.6959 18.1176 28.0246 18.8674 28.0246C14.1108 28.0246 10.2136 24.3447 9.86743 19.6765Z" fill="#442CF5"/>
<path d="M18.8674 11.2339C18.6192 11.2339 18.2986 11.3395 17.9258 11.6807C17.5502 12.0244 17.1742 12.5631 16.842 13.297C16.512 14.0261 16.244 14.9062 16.0596 15.8898C15.9144 16.6643 15.8243 17.4854 15.7927 18.3227H21.9422C21.9106 17.4854 21.8205 16.6643 21.6753 15.8898C21.4909 14.9062 21.2229 14.0261 20.8929 13.297C20.5607 12.5631 20.1847 12.0244 19.8091 11.6807C19.4363 11.3395 19.1156 11.2339 18.8674 11.2339Z" fill="#442CF5"/>
<path d="M16.0596 22.1095C16.244 23.093 16.512 23.9731 16.842 24.7022C17.1742 25.4361 17.5502 25.9748 17.9258 26.3185C18.2986 26.6597 18.6192 26.7653 18.8674 26.7653C19.1156 26.7653 19.4363 26.6597 19.8091 26.3185C20.1847 25.9748 20.5607 25.4361 20.8929 24.7022C21.2229 23.9731 21.4909 23.093 21.6753 22.1095C21.8205 21.3349 21.9106 20.5138 21.9422 19.6765H15.7927C15.8243 20.5138 15.9144 21.3349 16.0596 22.1095Z" fill="#442CF5"/>
<path d="M18.8674 9.97461C19.6173 9.97461 20.2849 10.3033 20.8342 10.8059C21.3806 11.306 21.8425 12.0041 22.216 12.8294C22.5917 13.6594 22.8836 14.6303 23.0811 15.6839C23.2394 16.5285 23.3358 17.4189 23.3679 18.3227H27.8674C27.5213 13.6545 23.6241 9.97461 18.8674 9.97461Z" fill="#442CF5"/>
<path d="M23.0811 22.3153C22.8836 23.3689 22.5917 24.3398 22.216 25.1699C21.8425 25.9951 21.3806 26.6932 20.8342 27.1933C20.2849 27.6959 19.6173 28.0246 18.8674 28.0246C23.6241 28.0246 27.5213 24.3447 27.8674 19.6765H23.3679C23.3358 20.5803 23.2394 21.4707 23.0811 22.3153Z" fill="#442CF5"/>
</svg>
