<svg width="39" height="38" viewBox="0 0 39 38" fill="none" xmlns="http://www.w3.org/2000/svg">
<rect x="0.896973" width="37.206" height="38" rx="10" fill="#F5F7FF"/>
<path d="M14.1133 15.9932C14.0497 15.5548 13.9138 15.0328 13.7511 14.4084L13.2635 12.5366L13.2549 12.5036C13.8953 11.8864 14.6267 11.3632 15.427 10.9561L16.8987 12.0723C17.4032 12.455 17.8273 12.7767 18.2029 12.9988C18.3995 13.115 18.5975 13.2132 18.8041 13.2835V16.0081C18.693 16.0598 18.5867 16.1248 18.4872 16.203L16.745 17.5721C16.68 17.6232 16.6197 17.6785 16.5643 17.7374L14.1496 16.6918C14.1642 16.4635 14.148 16.2321 14.1133 15.9932Z" fill="#442CF5"/>
<path d="M12.3382 17.3792C12.0722 17.6083 11.6978 17.8639 11.1347 18.2464L10.5 18.6774C10.5645 16.8405 11.1778 15.1434 12.1808 13.7454L12.433 14.7134C12.6074 15.3831 12.7234 15.8321 12.7749 16.1874C12.824 16.5262 12.803 16.7124 12.7477 16.8623C12.6929 17.011 12.5903 17.162 12.3382 17.3792Z" fill="#442CF5"/>
<path d="M13.4707 23.4043C14.0969 23.4043 14.6249 23.4043 15.0562 23.4549C15.2836 23.4816 15.5009 23.5239 15.7081 23.5938L16.9845 21.9236C16.938 21.8335 16.8993 21.7382 16.8694 21.6386L16.1851 19.3607C16.1512 19.2478 16.1297 19.1333 16.1201 19.0189L13.6618 17.9544C13.5335 18.1155 13.3849 18.2625 13.221 18.4038C12.8891 18.6897 12.4494 18.9884 11.926 19.3438L10.5812 20.2572C10.7387 21.3867 11.1051 22.4492 11.6403 23.4043L13.4707 23.4043Z" fill="#442CF5"/>
<path d="M19.3229 17.2664C19.3716 17.2281 19.4267 17.2107 19.4803 17.2107C19.5339 17.2107 19.5889 17.2281 19.6377 17.2664L21.3799 18.6355C21.4264 18.672 21.4617 18.7237 21.4802 18.7851C21.4981 18.8446 21.4989 18.9095 21.4802 18.9716L20.7959 21.2495C20.7771 21.3122 20.7417 21.362 20.6987 21.3967C20.6513 21.435 20.5955 21.4548 20.5382 21.4548H18.4224C18.365 21.4548 18.3092 21.435 18.2618 21.3967C18.2189 21.362 18.1835 21.3122 18.1647 21.2495L17.4804 18.9716C17.4617 18.9095 17.4625 18.8446 17.4804 18.7851C17.4988 18.7237 17.5342 18.672 17.5807 18.6355L19.3229 17.2664Z" fill="#442CF5"/>
<path d="M20.7511 13.027C21.1313 12.8133 21.5621 12.5011 22.0745 12.1297L23.644 10.9924C24.4237 11.3976 25.1367 11.9137 25.7622 12.5197L25.2702 14.4085C25.1076 15.0329 24.9716 15.5548 24.908 15.9933C24.8735 16.2309 24.8573 16.4611 24.8715 16.6882L22.399 17.7403C22.3428 17.6803 22.2816 17.624 22.2156 17.5721L20.4733 16.203C20.3739 16.1248 20.2675 16.0598 20.1565 16.0081V13.2943C20.36 13.2289 20.556 13.1366 20.7511 13.027Z" fill="#442CF5"/>
<path d="M18.8912 11.8346C18.5908 11.657 18.2286 11.3836 17.6854 10.9716L16.8896 10.368C17.7159 10.1179 18.5924 9.9834 19.5003 9.9834C20.4313 9.9834 21.3293 10.1248 22.174 10.3874L21.312 11.012C20.7603 11.4119 20.3925 11.6771 20.0885 11.848C19.7995 12.0104 19.6313 12.0499 19.4878 12.0483C19.3443 12.0467 19.1768 12.0034 18.8912 11.8346Z" fill="#442CF5"/>
<path d="M25.8004 18.4039C26.1322 18.6898 26.572 18.9885 27.0954 19.3439L28.4211 20.2443C28.2646 21.3787 27.8974 22.4456 27.3603 23.4043L25.6849 23.4043C25.0586 23.4043 24.5307 23.4043 24.0994 23.4549C23.8624 23.4827 23.6366 23.5275 23.4216 23.6027L21.9884 21.8993C22.0294 21.8164 22.0639 21.7293 22.0912 21.6386L22.7755 19.3607C22.809 19.249 22.8304 19.1356 22.8402 19.0224L25.3571 17.9514C25.486 18.1137 25.6354 18.2617 25.8004 18.4039Z" fill="#442CF5"/>
<path d="M22.0428 24.9743C21.8608 25.3766 21.6947 25.8894 21.4961 26.5024L21.0486 27.8833C20.5456 27.9705 20.0282 28.016 19.5003 28.016C19.0294 28.016 18.567 27.9798 18.1156 27.9101L17.6595 26.5024C17.4608 25.8894 17.2947 25.3766 17.1128 24.9744C17.0199 24.7689 16.9165 24.5773 16.7922 24.4026L18.0457 22.7623C18.167 22.7917 18.2932 22.8073 18.4224 22.8073H20.5382C20.6768 22.8073 20.812 22.7894 20.9414 22.7557L22.3469 24.426C22.2298 24.5944 22.1315 24.7781 22.0428 24.9743Z" fill="#442CF5"/>
<path d="M16.3844 26.955C16.1712 26.2971 16.0276 25.8569 15.8805 25.5316C15.74 25.2211 15.6243 25.0815 15.5032 24.9917C15.3838 24.9031 15.2231 24.8363 14.8984 24.7981C14.5553 24.7578 14.1072 24.7568 13.432 24.7568H12.5689C13.613 26.0153 14.9925 26.9849 16.5701 27.5281L16.3844 26.955Z" fill="#442CF5"/>
<path d="M24.2571 24.7981C24.6003 24.7578 25.0483 24.7568 25.7236 24.7568H26.4316C25.4264 25.9685 24.1102 26.9123 22.6056 27.4657L22.7711 26.955C22.9843 26.2971 23.128 25.8569 23.2751 25.5316C23.4155 25.2211 23.5312 25.0815 23.6523 24.9917C23.7718 24.9031 23.9324 24.8363 24.2571 24.7981Z" fill="#442CF5"/>
<path d="M26.2464 16.1875C26.298 15.8322 26.4139 15.3831 26.5884 14.7135L26.835 13.7667C27.8263 15.157 28.4332 16.841 28.5 18.663L27.8866 18.2464C27.3236 17.864 26.9491 17.6084 26.6831 17.3793C26.431 17.162 26.3285 17.0111 26.2736 16.8624C26.2183 16.7125 26.1973 16.5263 26.2464 16.1875Z" fill="#442CF5"/>
</svg>
