<svg width="34" height="36" viewBox="0 0 34 36" fill="none" xmlns="http://www.w3.org/2000/svg">
<rect y="0.451172" width="34" height="34.7256" rx="10" fill="#7F3DFF"/>
<path d="M10.2915 26.5361H10.012C8.9984 26.5361 8.49159 26.5361 8.1767 26.2212C7.86182 25.9063 7.86182 25.3995 7.86182 24.3859V23.1905C7.86182 22.633 7.86182 22.3543 8.005 22.1054C8.14818 21.8565 8.36418 21.7308 8.79619 21.4796C11.6403 19.8254 15.6794 18.8942 18.3753 20.5021C18.5564 20.6102 18.7193 20.7406 18.8585 20.8969C19.4585 21.5709 19.4148 22.588 18.7233 23.1916C18.5772 23.319 18.4216 23.4157 18.2648 23.4493C18.3936 23.4344 18.5171 23.4172 18.6349 23.3985C19.6147 23.2422 20.4373 22.7186 21.1902 22.1498L23.1331 20.6821C23.8181 20.1647 24.8347 20.1646 25.5198 20.6818C26.1365 21.1475 26.3251 21.9143 25.9352 22.5393C25.4805 23.2681 24.8398 24.2006 24.2247 24.7703C23.6087 25.3408 22.6916 25.8502 21.9429 26.2116C21.1135 26.6119 20.1973 26.8425 19.2653 26.9934C17.3752 27.2994 15.4053 27.2527 13.5344 26.8672C12.4767 26.6493 11.3782 26.5361 10.2915 26.5361Z" fill="white"/>
<path d="M10.6417 9.06337C10.2474 9.45769 10.1 10.0025 10.0449 10.8523C11.3547 10.8349 12.4132 9.77634 12.4307 8.46651C11.5809 8.52163 11.0361 8.66905 10.6417 9.06337Z" fill="white"/>
<path d="M22.2833 9.06337C21.889 8.66905 21.3442 8.52162 20.4944 8.4665C20.5118 9.77634 21.5704 10.8349 22.8802 10.8523C22.8251 10.0025 22.6777 9.45769 22.2833 9.06337Z" fill="white"/>
<path d="M22.2833 16.4046C21.889 16.7989 21.3442 16.9463 20.4944 17.0014C20.5118 15.6916 21.5704 14.6331 22.8802 14.6156C22.8251 15.4655 22.6777 16.0103 22.2833 16.4046Z" fill="white"/>
<path d="M10.6417 16.4046C11.0361 16.7989 11.5809 16.9463 12.4307 17.0014C12.4132 15.6916 11.3547 14.6331 10.0449 14.6156C10.1 15.4655 10.2474 16.0103 10.6417 16.4046Z" fill="white"/>
<path fill-rule="evenodd" clip-rule="evenodd" d="M10.012 12.4652C12.2386 12.4652 14.0436 10.6602 14.0436 8.43359H18.8815C18.8815 10.6602 20.6865 12.4652 22.9131 12.4652V13.0028C20.6865 13.0028 18.8815 14.8078 18.8815 17.0344H14.0436C14.0436 14.8078 12.2386 13.0028 10.012 13.0028V12.4652ZM16.4625 13.8091C17.0563 13.8091 17.5376 13.3277 17.5376 12.734C17.5376 12.1402 17.0563 11.6589 16.4625 11.6589C15.8688 11.6589 15.3874 12.1402 15.3874 12.734C15.3874 13.3277 15.8688 13.8091 16.4625 13.8091Z" fill="white"/>
</svg>
