<svg width="38" height="38" viewBox="0 0 38 38" fill="none" xmlns="http://www.w3.org/2000/svg">
<rect x="0.132324" width="37.206" height="38" rx="10" fill="#F5F7FF"/>
<path d="M12.4049 16.9144L15.467 12.7713C17.4464 10.0933 18.4361 8.75425 19.3594 9.03721C20.2828 9.32018 20.2828 10.9625 20.2828 14.2471V14.5568C20.2828 15.7415 20.2828 16.3339 20.6613 16.7054L20.6814 16.7247C21.0681 17.0884 21.6846 17.0884 22.9176 17.0884C25.1365 17.0884 26.2459 17.0884 26.6209 17.7613C26.6271 17.7724 26.6331 17.7837 26.639 17.795C26.9929 18.4784 26.3505 19.3475 25.0658 21.0857L22.0037 25.2287C20.0243 27.9067 19.0346 29.2458 18.1112 28.9628C17.1878 28.6798 17.1879 27.0375 17.1879 23.7528L17.1879 23.4433C17.1879 22.2585 17.1879 21.6662 16.8094 21.2946L16.7894 21.2754C16.4027 20.9117 15.7861 20.9117 14.5531 20.9117C12.3342 20.9117 11.2248 20.9117 10.8498 20.2387C10.8436 20.2276 10.8376 20.2164 10.8317 20.205C10.4778 19.5217 11.1202 18.6526 12.4049 16.9144Z" fill="#442CF5"/>
</svg>
