<svg width="36" height="36" viewBox="0 0 36 36" fill="none" xmlns="http://www.w3.org/2000/svg">
<circle cx="18" cy="18" r="17" fill="#2C14DD" fill-opacity="0.03" stroke="white" stroke-width="2"/>
<path d="M26.7668 4.52072C27.3451 3.63153 27.0968 2.43168 26.1511 1.95135C24.4547 1.08973 22.6287 0.500669 20.7401 0.209789C18.2174 -0.178779 15.6408 -0.0263599 13.1815 0.656932C10.7221 1.34022 8.43625 2.53876 6.4755 4.173C5.0077 5.39638 3.74724 6.84299 2.73841 8.45622C2.17601 9.35556 2.58228 10.5115 3.5364 10.9749C4.49052 11.4383 5.62932 11.0312 6.21752 10.1485C6.97119 9.01753 7.88566 7.99811 8.93481 7.12366C10.4771 5.83817 12.2752 4.8954 14.2098 4.35792C16.1443 3.82044 18.171 3.70055 20.1554 4.00619C21.5053 4.21411 22.8145 4.61569 24.0436 5.19582C25.0029 5.64858 26.1885 5.4099 26.7668 4.52072Z" fill="#FFC93D"/>
<path d="M10.1969 15.685C10.2669 15.2183 10.3976 14.8077 10.5889 14.453C10.7802 14.0983 11.0206 13.802 11.3099 13.564C11.5992 13.3213 11.9306 13.1393 12.3039 13.018C12.6819 12.8967 13.0879 12.836 13.5219 12.836C13.9559 12.836 14.3549 12.899 14.7189 13.025C15.0829 13.1463 15.3932 13.3213 15.6499 13.55C15.9112 13.774 16.1142 14.0447 16.2589 14.362C16.4036 14.6793 16.4759 15.0293 16.4759 15.412C16.4759 15.734 16.4362 16.0187 16.3569 16.266C16.2776 16.5133 16.1632 16.7303 16.0139 16.917C15.8692 17.1037 15.6919 17.2623 15.4819 17.393C15.2719 17.519 15.0362 17.624 14.7749 17.708C15.4142 17.8853 15.8949 18.1747 16.2169 18.576C16.5389 18.9727 16.6999 19.4767 16.6999 20.088C16.6999 20.5593 16.6112 20.984 16.4339 21.362C16.2566 21.7353 16.0139 22.0527 15.7059 22.314C15.3979 22.5707 15.0386 22.769 14.6279 22.909C14.2219 23.0443 13.7879 23.112 13.3259 23.112C12.7986 23.112 12.3459 23.049 11.9679 22.923C11.5899 22.7923 11.2679 22.6127 11.0019 22.384C10.7359 22.1507 10.5142 21.873 10.3369 21.551C10.1642 21.2243 10.0172 20.8673 9.89591 20.48L10.4909 20.228C10.6449 20.1627 10.7942 20.144 10.9389 20.172C11.0836 20.2 11.1886 20.2817 11.2539 20.417C11.3239 20.557 11.4032 20.7157 11.4919 20.893C11.5852 21.0657 11.7089 21.2313 11.8629 21.39C12.0169 21.544 12.2082 21.6747 12.4369 21.782C12.6702 21.8893 12.9619 21.943 13.3119 21.943C13.6479 21.943 13.9419 21.8893 14.1939 21.782C14.4459 21.67 14.6559 21.5277 14.8239 21.355C14.9919 21.1777 15.1179 20.9817 15.2019 20.767C15.2859 20.5523 15.3279 20.34 15.3279 20.13C15.3279 19.8687 15.2952 19.6283 15.2299 19.409C15.1646 19.1897 15.0386 19.003 14.8519 18.849C14.6699 18.6903 14.4156 18.5667 14.0889 18.478C13.7622 18.3893 13.3376 18.345 12.8149 18.345V17.351C13.2442 17.3463 13.6059 17.302 13.8999 17.218C14.1986 17.134 14.4389 17.0173 14.6209 16.868C14.8029 16.7187 14.9336 16.5413 15.0129 16.336C15.0969 16.1307 15.1389 15.902 15.1389 15.65C15.1389 15.3747 15.0969 15.1343 15.0129 14.929C14.9289 14.7237 14.8099 14.5533 14.6559 14.418C14.5066 14.278 14.3269 14.1753 14.1169 14.11C13.9116 14.04 13.6876 14.005 13.4449 14.005C13.2022 14.005 12.9782 14.04 12.7729 14.11C12.5676 14.18 12.3856 14.278 12.2269 14.404C12.0682 14.53 11.9352 14.6793 11.8279 14.852C11.7206 15.0247 11.6436 15.2113 11.5969 15.412C11.5316 15.5893 11.4476 15.7083 11.3449 15.769C11.2469 15.8297 11.1046 15.8437 10.9179 15.811L10.1969 15.685ZM21.61 22.027C21.9273 22.027 22.2097 21.9827 22.457 21.894C22.7043 21.8053 22.9143 21.6817 23.087 21.523C23.2597 21.3597 23.3903 21.166 23.479 20.942C23.5677 20.718 23.612 20.473 23.612 20.207C23.612 19.8803 23.5583 19.6003 23.451 19.367C23.3437 19.129 23.199 18.9353 23.017 18.786C22.835 18.632 22.6227 18.52 22.38 18.45C22.1373 18.3753 21.8807 18.338 21.61 18.338C21.3347 18.338 21.0757 18.3753 20.833 18.45C20.5903 18.52 20.378 18.632 20.196 18.786C20.014 18.9353 19.8693 19.129 19.762 19.367C19.6593 19.6003 19.608 19.8803 19.608 20.207C19.608 20.473 19.6523 20.718 19.741 20.942C19.8297 21.166 19.9603 21.3597 20.133 21.523C20.3057 21.6817 20.5157 21.8053 20.763 21.894C21.0103 21.9827 21.2927 22.027 21.61 22.027ZM21.61 13.886C21.3207 13.886 21.0663 13.9303 20.847 14.019C20.6323 14.103 20.4527 14.2197 20.308 14.369C20.1633 14.5183 20.0537 14.691 19.979 14.887C19.909 15.083 19.874 15.293 19.874 15.517C19.874 15.7363 19.9043 15.951 19.965 16.161C20.0303 16.3663 20.1307 16.5507 20.266 16.714C20.406 16.8727 20.5857 17.001 20.805 17.099C21.0243 17.197 21.2927 17.246 21.61 17.246C21.9227 17.246 22.1887 17.197 22.408 17.099C22.632 17.001 22.8117 16.8727 22.947 16.714C23.087 16.5507 23.1873 16.3663 23.248 16.161C23.3133 15.951 23.346 15.7363 23.346 15.517C23.346 15.293 23.3087 15.083 23.234 14.887C23.164 14.691 23.0567 14.5183 22.912 14.369C22.7673 14.2197 22.5853 14.103 22.366 14.019C22.1513 13.9303 21.8993 13.886 21.61 13.886ZM23.115 17.757C23.7403 17.9437 24.214 18.2447 24.536 18.66C24.8627 19.0753 25.026 19.6003 25.026 20.235C25.026 20.6737 24.942 21.0703 24.774 21.425C24.6107 21.7797 24.3773 22.083 24.074 22.335C23.7753 22.5823 23.416 22.7737 22.996 22.909C22.576 23.0443 22.114 23.112 21.61 23.112C21.106 23.112 20.644 23.0443 20.224 22.909C19.804 22.7737 19.4423 22.5823 19.139 22.335C18.8403 22.083 18.607 21.7797 18.439 21.425C18.2757 21.0703 18.194 20.6737 18.194 20.235C18.194 19.6003 18.355 19.0753 18.677 18.66C19.0037 18.2447 19.4797 17.9437 20.105 17.757C19.587 17.561 19.1973 17.2693 18.936 16.882C18.6747 16.49 18.544 16.0257 18.544 15.489C18.544 15.1157 18.6163 14.768 18.761 14.446C18.9103 14.1193 19.118 13.837 19.384 13.599C19.6547 13.361 19.979 13.1743 20.357 13.039C20.735 12.9037 21.1527 12.836 21.61 12.836C22.0673 12.836 22.485 12.9037 22.863 13.039C23.241 13.1743 23.563 13.361 23.829 13.599C24.0997 13.837 24.3073 14.1193 24.452 14.446C24.6013 14.768 24.676 15.1157 24.676 15.489C24.676 16.0257 24.5453 16.49 24.284 16.882C24.0227 17.2693 23.633 17.561 23.115 17.757Z" fill="#292B2D"/>
</svg>
