<svg width="20" height="21" viewBox="0 0 20 21" fill="none" xmlns="http://www.w3.org/2000/svg">
<path fill-rule="evenodd" clip-rule="evenodd" d="M0.5192 6.19774C0 7.14628 0 8.29049 0 10.5789V12.1C0 16.0008 0 17.9513 1.17157 19.1631C2.34315 20.375 4.22876 20.375 8 20.375H12C15.7712 20.375 17.6569 20.375 18.8284 19.1631C20 17.9513 20 16.0008 20 12.1V10.5789C20 8.29049 20 7.14628 19.4808 6.19774C18.9616 5.24921 18.0131 4.66051 16.116 3.48312L14.116 2.24187C12.1106 0.99729 11.1079 0.375 10 0.375C8.89206 0.375 7.88939 0.99729 5.88403 2.24187L3.88403 3.48313C1.98695 4.66051 1.0384 5.24921 0.5192 6.19774ZM9.25 16.375C9.25 16.7892 9.58579 17.125 10 17.125C10.4142 17.125 10.75 16.7892 10.75 16.375V13.375C10.75 12.9608 10.4142 12.625 10 12.625C9.58579 12.625 9.25 12.9608 9.25 13.375V16.375Z" fill="#442CF5"/>
</svg>
