<svg width="34" height="35" viewBox="0 0 34 35" fill="none" xmlns="http://www.w3.org/2000/svg">
<rect width="34" height="34.7256" rx="10" fill="#00A86B"/>
<path fill-rule="evenodd" clip-rule="evenodd" d="M17.0477 7.88184H16.9526C16.1316 7.88181 15.4469 7.88179 14.9034 7.95486C14.3297 8.032 13.8117 8.20167 13.3955 8.61789C12.9793 9.03411 12.8096 9.55207 12.7325 10.1258C12.6801 10.5154 12.6653 11.4471 12.6611 12.246C10.8131 12.3063 9.70352 12.5221 8.93244 13.2932C7.86182 14.3638 7.86182 16.0869 7.86182 19.5332C7.86182 22.9795 7.86182 24.7026 8.93244 25.7732C10.0031 26.8438 11.7262 26.8438 15.1725 26.8438H18.8278C22.2741 26.8438 23.9972 26.8438 25.0678 25.7732C26.1385 24.7026 26.1385 22.9795 26.1385 19.5332C26.1385 16.0869 26.1385 14.3638 25.0678 13.2932C24.2967 12.5221 23.1872 12.3063 21.3392 12.246C21.335 11.4471 21.3202 10.5154 21.2678 10.1258C21.1907 9.55207 21.021 9.03411 20.6048 8.61789C20.1886 8.20167 19.6706 8.032 19.0969 7.95486C18.5534 7.88179 17.8687 7.88181 17.0477 7.88184ZM19.9682 12.2243C19.964 11.4506 19.9509 10.6179 19.9093 10.3084C19.8526 9.88672 19.7546 9.70624 19.6355 9.58716C19.5164 9.46807 19.336 9.37008 18.9143 9.31339C18.4728 9.25404 17.8811 9.25259 17.0001 9.25259C16.1192 9.25259 15.5274 9.25404 15.086 9.31339C14.6643 9.37008 14.4838 9.46807 14.3648 9.58716C14.2457 9.70624 14.1477 9.88672 14.091 10.3084C14.0494 10.6179 14.0362 11.4506 14.0321 12.2243C14.3898 12.2225 14.7693 12.2225 15.1725 12.2225H18.8278C19.2309 12.2225 19.6105 12.2225 19.9682 12.2243ZM17.0001 15.1925C17.3787 15.1925 17.6855 15.4993 17.6855 15.8779V15.8872C18.6805 16.1379 19.5132 16.9224 19.5132 18.0101C19.5132 18.3887 19.2063 18.6955 18.8278 18.6955C18.4493 18.6955 18.1424 18.3887 18.1424 18.0101C18.1424 17.6592 17.7533 17.1725 17.0001 17.1725C16.247 17.1725 15.8578 17.6592 15.8578 18.0101C15.8578 18.3611 16.247 18.8478 17.0001 18.8478C18.2657 18.8478 19.5132 19.7249 19.5132 21.0562C19.5132 22.144 18.6805 22.9285 17.6855 23.1792V23.1885C17.6855 23.567 17.3787 23.8739 17.0001 23.8739C16.6216 23.8739 16.3148 23.567 16.3148 23.1885V23.1792C15.3198 22.9285 14.4871 22.144 14.4871 21.0562C14.4871 20.6777 14.7939 20.3709 15.1725 20.3709C15.551 20.3709 15.8578 20.6777 15.8578 21.0562C15.8578 21.4072 16.247 21.8939 17.0001 21.8939C17.7533 21.8939 18.1424 21.4072 18.1424 21.0562C18.1424 20.7053 17.7533 20.2186 17.0001 20.2186C15.7345 20.2186 14.4871 19.3415 14.4871 18.0101C14.4871 16.9224 15.3198 16.1379 16.3148 15.8872V15.8779C16.3148 15.4993 16.6216 15.1925 17.0001 15.1925Z" fill="white"/>
</svg>
