<svg width="20" height="21" viewBox="0 0 20 21" fill="none" xmlns="http://www.w3.org/2000/svg">
<path d="M2.65875 19.92H2.35294C1.24375 19.92 0.689161 19.92 0.34458 19.5755C0 19.2309 0 18.6763 0 17.5671V16.2589C0 15.6489 0 15.3439 0.156681 15.0715C0.313361 14.7992 0.549732 14.6617 1.02247 14.3867C4.13479 12.5766 8.55476 11.5576 11.5048 13.3171C11.703 13.4353 11.8812 13.578 12.0336 13.7492C12.6902 14.4866 12.6423 15.5997 11.8856 16.2602C11.7258 16.3996 11.5555 16.5054 11.3839 16.5422C11.5249 16.5258 11.66 16.5071 11.7889 16.4865C12.8611 16.3155 13.7612 15.7425 14.5852 15.1201L16.7113 13.514C17.4608 12.9478 18.5733 12.9477 19.323 13.5138C19.9979 14.0233 20.2042 14.8624 19.7776 15.5463C19.28 16.3439 18.5789 17.3643 17.9058 17.9877C17.2317 18.6121 16.2281 19.1695 15.4088 19.5649C14.5012 20.003 13.4986 20.2554 12.4788 20.4205C10.4104 20.7553 8.25478 20.7042 6.20744 20.2824C5.05004 20.0439 3.84799 19.92 2.65875 19.92Z" fill="#6C727F"/>
<path d="M3.04219 0.799513C2.61069 1.23101 2.44936 1.82718 2.38904 2.75717C3.82239 2.73806 4.98073 1.57971 4.99985 0.146368C4.06985 0.206685 3.47369 0.368012 3.04219 0.799513Z" fill="#6C727F"/>
<path d="M15.7815 0.799512C15.35 0.368011 14.7538 0.206678 13.8239 0.146362C13.843 1.57971 15.0013 2.73806 16.4347 2.75717C16.3743 1.82718 16.213 1.23101 15.7815 0.799512Z" fill="#6C727F"/>
<path d="M15.7815 8.83295C15.35 9.26446 14.7538 9.42578 13.8239 9.4861C13.843 8.05275 15.0013 6.89441 16.4347 6.8753C16.3744 7.80529 16.213 8.40145 15.7815 8.83295Z" fill="#6C727F"/>
<path d="M3.04219 8.83295C3.47369 9.26446 4.06985 9.42578 4.99985 9.4861C4.98073 8.05276 3.82239 6.89441 2.38904 6.8753C2.44936 7.80529 2.61069 8.40145 3.04219 8.83295Z" fill="#6C727F"/>
<path fill-rule="evenodd" clip-rule="evenodd" d="M2.35303 4.52212C4.78958 4.52212 6.76479 2.5469 6.76479 0.110352H12.0589C12.0589 2.5469 14.0341 4.52212 16.4707 4.52212V5.11035C14.0341 5.11035 12.0589 7.08557 12.0589 9.52212H6.76479C6.76479 7.08557 4.78958 5.11035 2.35303 5.11035V4.52212ZM9.41185 5.9927C10.0616 5.9927 10.5883 5.46598 10.5883 4.81623C10.5883 4.16649 10.0616 3.63976 9.41185 3.63976C8.7621 3.63976 8.23538 4.16649 8.23538 4.81623C8.23538 5.46598 8.7621 5.9927 9.41185 5.9927Z" fill="#6C727F"/>
</svg>
