<svg width="39" height="38" viewBox="0 0 39 38" fill="none" xmlns="http://www.w3.org/2000/svg">
<rect x="0.333496" width="38" height="38" rx="10" fill="#442CF5"/>
<path d="M28.2749 14.6888C28.855 15.2621 29.1045 15.9839 29.2212 16.8411C29.3335 17.6668 29.3335 18.7166 29.3335 20.0191V20.1236C29.3335 21.4261 29.3335 22.4759 29.2212 23.3016C29.1045 24.1589 28.855 24.8807 28.2749 25.4539C27.6947 26.0272 26.9642 26.2738 26.0967 26.389C25.2611 26.5 24.1986 26.5 22.8805 26.5H17.9555C16.6374 26.5 15.5749 26.5 14.7393 26.389C13.8717 26.2738 13.1413 26.0272 12.5611 25.4539C12.2092 25.1062 11.9789 24.7037 11.8261 24.2495C12.6976 24.3574 13.7757 24.3573 15.0214 24.3573H20.0309C21.3125 24.3573 22.4168 24.3574 23.3011 24.2399C24.2489 24.114 25.1573 23.8301 25.8942 23.102C26.631 22.3739 26.9183 21.4762 27.0458 20.5398C27.1646 19.666 27.1646 18.5748 27.1645 17.3084V17.1203C27.1646 15.8891 27.1646 14.8236 27.0554 13.9623C27.5153 14.1133 27.9228 14.3409 28.2749 14.6888Z" fill="white"/>
<path d="M17.5261 15.5477C16.5946 15.5477 15.8394 16.2939 15.8394 17.2143C15.8394 18.1348 16.5946 18.881 17.5261 18.881C18.4577 18.881 19.2128 18.1348 19.2128 17.2143C19.2128 16.2939 18.4577 15.5477 17.5261 15.5477Z" fill="white"/>
<path fill-rule="evenodd" clip-rule="evenodd" d="M10.1804 12.3368C9.3335 13.1737 9.3335 14.5206 9.3335 17.2143C9.3335 19.9081 9.3335 21.255 10.1804 22.0918C11.0273 22.9287 12.3904 22.9287 15.1165 22.9287H19.9357C22.6619 22.9287 24.0249 22.9287 24.8718 22.0918C25.7188 21.255 25.7188 19.9081 25.7188 17.2143C25.7188 14.5206 25.7188 13.1737 24.8718 12.3368C24.0249 11.5 22.6619 11.5 19.9357 11.5H15.1165C12.3904 11.5 11.0273 11.5 10.1804 12.3368ZM14.3936 17.2143C14.3936 15.5049 15.7961 14.1191 17.5261 14.1191C19.2561 14.1191 20.6586 15.5049 20.6586 17.2143C20.6586 18.9238 19.2561 20.3096 17.5261 20.3096C15.7961 20.3096 14.3936 18.9238 14.3936 17.2143ZM22.8272 19.8334C22.428 19.8334 22.1044 19.5136 22.1044 19.1191V15.3096C22.1044 14.9151 22.428 14.5953 22.8272 14.5953C23.2265 14.5953 23.5501 14.9151 23.5501 15.3096V19.1191C23.5501 19.5136 23.2265 19.8334 22.8272 19.8334ZM11.5021 19.1191C11.5021 19.5136 11.8258 19.8334 12.225 19.8334C12.6242 19.8334 12.9479 19.5136 12.9479 19.1191L12.9479 15.3096C12.9479 14.9151 12.6242 14.5953 12.225 14.5953C11.8258 14.5953 11.5021 14.9151 11.5021 15.3096L11.5021 19.1191Z" fill="white"/>
</svg>
