<svg width="34" height="36" viewBox="0 0 34 36" fill="none" xmlns="http://www.w3.org/2000/svg">
<rect y="0.725586" width="34" height="34.7256" rx="10" fill="#FFC93D"/>
<path d="M20.1984 13.9767C20.1984 15.7432 18.7664 17.1752 16.9999 17.1752C15.2335 17.1752 13.8015 15.7432 13.8015 13.9767C13.8015 12.2103 15.2335 10.7783 16.9999 10.7783C18.7664 10.7783 20.1984 12.2103 20.1984 13.9767Z" fill="white"/>
<path d="M22.4831 22.2014C22.4831 23.9678 20.0283 25.3998 17.0001 25.3998C13.9719 25.3998 11.5171 23.9678 11.5171 22.2014C11.5171 20.4349 13.9719 19.0029 17.0001 19.0029C20.0283 19.0029 22.4831 20.4349 22.4831 22.2014Z" fill="white"/>
<path d="M12.5425 11.6934C12.7047 11.6934 12.863 11.7093 13.0159 11.7396C12.6435 12.4011 12.431 13.1647 12.431 13.9779C12.431 14.7714 12.6332 15.5176 12.989 16.1678C12.8445 16.1948 12.6952 16.2089 12.5425 16.2089C11.25 16.2089 10.2022 15.198 10.2022 13.9511C10.2022 12.7042 11.25 11.6934 12.5425 11.6934Z" fill="white"/>
<path d="M11.0121 24.4742C10.4931 23.8538 10.1464 23.0926 10.1464 22.2025C10.1464 21.3396 10.4723 20.5978 10.965 19.988C9.22443 20.123 7.86182 21.075 7.86182 22.2293C7.86182 23.3945 9.24838 24.3535 11.0121 24.4742Z" fill="white"/>
<path d="M21.569 13.9779C21.569 14.7714 21.3668 15.5176 21.011 16.1678C21.1556 16.1948 21.3048 16.2089 21.4575 16.2089C22.75 16.2089 23.7979 15.198 23.7979 13.9511C23.7979 12.7042 22.75 11.6934 21.4575 11.6934C21.2953 11.6934 21.137 11.7093 20.9841 11.7396C21.3566 12.4011 21.569 13.1647 21.569 13.9779Z" fill="white"/>
<path d="M22.9879 24.4742C24.7516 24.3535 26.1382 23.3945 26.1382 22.2293C26.1382 21.075 24.7756 20.123 23.035 19.988C23.5278 20.5978 23.8536 21.3396 23.8536 22.2025C23.8536 23.0926 23.5069 23.8538 22.9879 24.4742Z" fill="white"/>
</svg>
