<svg width="39" height="38" viewBox="0 0 39 38" fill="none" xmlns="http://www.w3.org/2000/svg">
<rect x="0.666748" width="38" height="38" rx="10" fill="#442CF5"/>
<path d="M12.3255 28.545H12.0197C10.9105 28.545 10.3559 28.545 10.0113 28.2005C9.66675 27.8559 9.66675 27.3013 9.66675 26.1921V24.8839C9.66675 24.2739 9.66675 23.9689 9.82343 23.6965C9.98011 23.4242 10.2165 23.2867 10.6892 23.0117C13.8015 21.2016 18.2215 20.1826 21.1715 21.9421C21.3697 22.0603 21.548 22.203 21.7003 22.3742C22.3569 23.1116 22.3091 24.2247 21.5523 24.8852C21.3926 25.0246 21.2222 25.1304 21.0507 25.1672C21.1917 25.1508 21.3268 25.1321 21.4557 25.1115C22.5279 24.9405 23.428 24.3675 24.252 23.7451L26.3781 22.139C27.1276 21.5728 28.24 21.5727 28.9897 22.1388C29.6646 22.6483 29.871 23.4874 29.4443 24.1713C28.9467 24.9689 28.2457 25.9893 27.5725 26.6127C26.8984 27.2371 25.8948 27.7945 25.0755 28.1899C24.168 28.628 23.1653 28.8804 22.1455 29.0455C20.0772 29.3803 17.9215 29.3292 15.8742 28.9074C14.7168 28.6689 13.5147 28.545 12.3255 28.545Z" fill="white"/>
<path d="M12.7089 9.42451C12.2774 9.85601 12.1161 10.4522 12.0558 11.3822C13.4891 11.3631 14.6475 10.2047 14.6666 8.77137C13.7366 8.83168 13.1404 8.99301 12.7089 9.42451Z" fill="white"/>
<path d="M25.4483 9.42451C25.0168 8.99301 24.4206 8.83168 23.4906 8.77136C23.5097 10.2047 24.6681 11.3631 26.1014 11.3822C26.0411 10.4522 25.8798 9.85601 25.4483 9.42451Z" fill="white"/>
<path d="M25.4483 17.458C25.0168 17.8895 24.4206 18.0508 23.4906 18.1111C23.5097 16.6778 24.6681 15.5194 26.1014 15.5003C26.0411 16.4303 25.8798 17.0265 25.4483 17.458Z" fill="white"/>
<path d="M12.7089 17.458C13.1404 17.8895 13.7366 18.0508 14.6666 18.1111C14.6475 16.6778 13.4891 15.5194 12.0558 15.5003C12.1161 16.4303 12.2774 17.0265 12.7089 17.458Z" fill="white"/>
<path fill-rule="evenodd" clip-rule="evenodd" d="M12.0198 13.1471C14.4563 13.1471 16.4315 11.1719 16.4315 8.73535H21.7257C21.7257 11.1719 23.7009 13.1471 26.1374 13.1471V13.7354C23.7009 13.7354 21.7257 15.7106 21.7257 18.1471H16.4315C16.4315 15.7106 14.4563 13.7354 12.0198 13.7354V13.1471ZM19.0786 14.6177C19.7283 14.6177 20.2551 14.091 20.2551 13.4412C20.2551 12.7915 19.7283 12.2648 19.0786 12.2648C18.4289 12.2648 17.9021 12.7915 17.9021 13.4412C17.9021 14.091 18.4289 14.6177 19.0786 14.6177Z" fill="white"/>
</svg>
