<svg width="16" height="17" viewBox="0 0 16 17" fill="none" xmlns="http://www.w3.org/2000/svg">
<path d="M4.95983 15.3685C5.66073 16.2595 6.76182 16.8337 8 16.8337C9.23819 16.8337 10.3393 16.2595 11.0402 15.3685C9.02203 15.642 6.97798 15.642 4.95983 15.3685Z" fill="#240F51"/>
<path d="M13.6243 6.00032V6.58708C13.6243 7.29123 13.8252 7.97964 14.2018 8.56553L15.1247 10.0013C15.9676 11.3127 15.3241 13.0953 13.858 13.51C10.0227 14.5948 5.97728 14.5948 2.14197 13.51C0.675872 13.0953 0.0323529 11.3127 0.875299 10.0013L1.79816 8.56553C2.17476 7.97964 2.37573 7.29123 2.37573 6.58708V6.00032C2.37573 2.77866 4.8938 0.166992 8 0.166992C11.1062 0.166992 13.6243 2.77866 13.6243 6.00032Z" fill="#240F51"/>
</svg>
