<svg width="38" height="38" viewBox="0 0 38 38" fill="none" xmlns="http://www.w3.org/2000/svg">
<rect width="38" height="38" rx="10" fill="#442CF5"/>
<path fill-rule="evenodd" clip-rule="evenodd" d="M19 22.7131C19.3728 22.7131 19.675 22.4109 19.675 22.0381V12.1628L21.1875 13.9274C21.4301 14.2104 21.8562 14.2432 22.1393 14.0006C22.4223 13.758 22.4551 13.3318 22.2125 13.0488L19.5125 9.8988C19.3843 9.74919 19.1971 9.66309 19 9.66309C18.803 9.66309 18.6157 9.74919 18.4875 9.8988L15.7875 13.0488C15.5449 13.3318 15.5777 13.758 15.8607 14.0006C16.1438 14.2432 16.5699 14.2104 16.8125 13.9274L18.325 12.1628L18.325 22.0381C18.325 22.4109 18.6272 22.7131 19 22.7131Z" fill="#FAFBFF"/>
<path d="M22.6 16.6381C21.968 16.6381 21.652 16.6381 21.425 16.7897C21.3268 16.8554 21.2424 16.9398 21.1767 17.0381C21.025 17.2651 21.025 17.5811 21.025 18.213L21.025 22.0381C21.025 23.1565 20.1184 24.0631 19 24.0631C17.8817 24.0631 16.975 23.1565 16.975 22.0381L16.975 18.2131C16.975 17.5811 16.975 17.2651 16.8233 17.038C16.7577 16.9398 16.6733 16.8554 16.5751 16.7898C16.3481 16.6381 16.032 16.6381 15.4 16.6381C12.8544 16.6381 11.5816 16.6381 10.7908 17.4289C10 18.2197 10 19.4923 10 22.0379V22.9379C10 25.4835 10 26.7563 10.7908 27.5471C11.5816 28.3379 12.8544 28.3379 15.4 28.3379H22.6C25.1456 28.3379 26.4184 28.3379 27.2092 27.5471C28 26.7563 28 25.4835 28 22.9379V22.0379C28 19.4923 28 18.2197 27.2092 17.4289C26.4184 16.6381 25.1456 16.6381 22.6 16.6381Z" fill="#FAFBFF"/>
</svg>
